<?xml version="1.0" encoding="UTF-8" standalone="no"?>
<!-- Created with Inkscape (http://www.inkscape.org/) -->
<svg
   xmlns:dc="http://purl.org/dc/elements/1.1/"
   xmlns:cc="http://web.resource.org/cc/"
   xmlns:rdf="http://www.w3.org/1999/02/22-rdf-syntax-ns#"
   xmlns:svg="http://www.w3.org/2000/svg"
   xmlns="http://www.w3.org/2000/svg"
   xmlns:sodipodi="http://sodipodi.sourceforge.net/DTD/sodipodi-0.dtd"
   xmlns:inkscape="http://www.inkscape.org/namespaces/inkscape"
   width="16px"
   height="16px"
   id="svg2159"
   sodipodi:version="0.32"
   inkscape:version="0.45.1"
   sodipodi:docbase="/home/karry/data/tmp"
   sodipodi:docname="krizek.svg"
   inkscape:output_extension="org.inkscape.output.svg.inkscape">
  <defs
     id="defs2161" />
  <sodipodi:namedview
     id="base"
     pagecolor="#ffffff"
     bordercolor="#666666"
     borderopacity="1.0"
     inkscape:pageopacity="0.0"
     inkscape:pageshadow="2"
     inkscape:zoom="12.197592"
     inkscape:cx="8"
     inkscape:cy="8"
     inkscape:current-layer="layer1"
     showgrid="true"
     inkscape:grid-bbox="true"
     inkscape:document-units="px"
     inkscape:window-width="1280"
     inkscape:window-height="746"
     inkscape:window-x="0"
     inkscape:window-y="0" />
  <metadata
     id="metadata2164">
    <rdf:RDF>
      <cc:Work
         rdf:about="">
        <dc:format>image/svg+xml</dc:format>
        <dc:type
           rdf:resource="http://purl.org/dc/dcmitype/StillImage" />
      </cc:Work>
    </rdf:RDF>
  </metadata>
  <g
     id="layer1"
     inkscape:label="Layer 1"
     inkscape:groupmode="layer"
     style="display:inline">
    <path
       style="fill:none;fill-rule:evenodd;stroke:#000000;stroke-width:1.6;stroke-linecap:butt;stroke-linejoin:miter;stroke-opacity:1;stroke-miterlimit:4;stroke-dasharray:none"
       d="M 1,4 C 1,4 1,1 4,1 C 7,1 12,1 12,1 C 12,1 15,1 15,4 C 15,7 15,12 15,12 C 15,12 15,15 12,15 C 9,15 4,15 4,15 C 4,15 1.0253623,14.923913 1,12 C 0.97463768,9.0471014 1,4 1,4 z "
       id="path2169"
       sodipodi:nodetypes="cscscsczc" />
    <path
       style="fill:#000000;fill-opacity:1;fill-rule:evenodd;stroke:#000000;stroke-width:1;stroke-linecap:butt;stroke-linejoin:miter;stroke-opacity:1;stroke-miterlimit:4;stroke-dasharray:none"
       d="M 4.6195652,3.2341485 C 3.3610295,2.0373402 2.2673181,3.3030307 3.4080617,4.4746376 C 4.5628192,5.6606377 10.133449,11.432514 11.202445,12.44067 C 12.286685,13.463202 13.728203,12.230187 12.556612,10.999547 C 11.399578,9.7841964 5.8924833,4.4446338 4.6195652,3.2341485 z "
       id="path2173"
       sodipodi:nodetypes="czzzz" />
    <path
       style="fill:#000000;fill-opacity:1;fill-rule:evenodd;stroke:#000000;stroke-width:0.9;stroke-linecap:butt;stroke-linejoin:miter;stroke-opacity:1;stroke-miterlimit:4;stroke-dasharray:none"
       d="M 11.347372,3.1154892 C 10.329294,4.1914834 4.1455176,10.722132 3.3586956,11.487771 C 2.5862174,12.239452 3.7271419,13.612656 4.5412138,12.844203 C 5.3704847,12.061401 11.644394,5.2330837 12.674819,4.0951088 C 13.719583,2.9412983 12.351863,2.0538554 11.347372,3.1154892 z "
       id="path2179"
       sodipodi:nodetypes="czzzz" />
  </g>
</svg>
