<?xml version="1.0" encoding="UTF-8" standalone="no"?>
<!-- Created with Inkscape (http://www.inkscape.org/) -->
<svg
   xmlns:dc="http://purl.org/dc/elements/1.1/"
   xmlns:cc="http://web.resource.org/cc/"
   xmlns:rdf="http://www.w3.org/1999/02/22-rdf-syntax-ns#"
   xmlns:svg="http://www.w3.org/2000/svg"
   xmlns="http://www.w3.org/2000/svg"
   xmlns:sodipodi="http://sodipodi.sourceforge.net/DTD/sodipodi-0.dtd"
   xmlns:inkscape="http://www.inkscape.org/namespaces/inkscape"
   width="100"
   height="40"
   id="svg2"
   inkscape:label="Pozadí"
   sodipodi:version="0.32"
   inkscape:version="0.45.1"
   version="1.0"
   sodipodi:docbase="/home/karry/data/www/karry/img"
   sodipodi:docname="full.svg"
   inkscape:output_extension="org.inkscape.output.svg.inkscape">
  <defs
     id="defs3" />
  <sodipodi:namedview
     id="base"
     pagecolor="#ffffff"
     bordercolor="#666666"
     borderopacity="1.0"
     inkscape:pageopacity="0.0"
     inkscape:pageshadow="2"
     inkscape:zoom="1.2082254"
     inkscape:cx="50"
     inkscape:cy="19.878755"
     inkscape:document-units="px"
     inkscape:current-layer="layer1"
     width="100px"
     height="40px"
     inkscape:window-width="1280"
     inkscape:window-height="746"
     inkscape:window-x="0"
     inkscape:window-y="0" />
  <metadata
     id="metadata6">
    <rdf:RDF>
      <cc:Work
         rdf:about="">
        <dc:format>image/svg+xml</dc:format>
        <dc:type
           rdf:resource="http://purl.org/dc/dcmitype/StillImage" />
      </cc:Work>
    </rdf:RDF>
  </metadata>
  <g
     inkscape:label="Vrstva 1"
     inkscape:groupmode="layer"
     id="layer1">
    <path
       style="fill:none;fill-rule:evenodd;stroke:#000000;stroke-width:1.32737291;stroke-linecap:butt;stroke-linejoin:miter;stroke-miterlimit:4;stroke-dasharray:none;stroke-opacity:1"
       d="M 4.6476003,32.50666 C 13.634646,32.178263 8.2891101,31.474473 16.847828,32.799906 C 13.827992,28.948147 16.956357,24.424076 16.930823,24.332442 C 12.656594,25.209352 8.3823641,26.832644 4.1081344,25.322146 C 5.085732,27.970674 6.3404733,30.707334 4.6476003,32.50666 z "
       id="path3180"
       sodipodi:nodetypes="ccccc" />
    <path
       style="fill:none;fill-rule:evenodd;stroke:#000000;stroke-width:0.45727137;stroke-linecap:round;stroke-linejoin:round;stroke-miterlimit:4;stroke-dasharray:none;stroke-opacity:1"
       d="M 7.4110483,30.351909 C 7.4110483,30.351909 11.650775,17.467214 12.090259,12.701643"
       id="path5137"
       sodipodi:nodetypes="cc" />
    <path
       style="fill:none;fill-rule:evenodd;stroke:#000000;stroke-width:0.60498464;stroke-linecap:round;stroke-linejoin:round;stroke-miterlimit:4;stroke-dasharray:none;stroke-opacity:1"
       d="M 17.108167,30.623608 C 23.535786,24.343399 29.851422,18.664264 35.817835,14.859555"
       id="path5139"
       sodipodi:nodetypes="cc" />
    <path
       style="fill:none;fill-rule:evenodd;stroke:#000000;stroke-width:2.70000005;stroke-linecap:round;stroke-linejoin:round;stroke-miterlimit:4;stroke-dasharray:none;stroke-opacity:1"
       d="M 41.776613,-1.6215325 C 38.401422,2.9681341 39.045082,9.6382288 38.037712,13.15084 C 31.537985,8.4627065 17.922541,8.3983531 12.747857,10.397216 C 12.707438,7.9480379 12.8822,0.81890338 11.878519,-1.0523181"
       id="path5141"
       sodipodi:nodetypes="cccc" />
    <path
       style="fill:none;fill-rule:evenodd;stroke:#000000;stroke-width:0.60011303;stroke-linecap:round;stroke-linejoin:round;stroke-miterlimit:4;stroke-dasharray:none;stroke-opacity:1"
       d="M 4.2586847,22.726451 C 7.2929719,15.464707 9.5215487,13.527702 9.7348566,1.5325261"
       id="path7091"
       sodipodi:nodetypes="cc" />
    <path
       style="fill:none;fill-rule:evenodd;stroke:#000000;stroke-width:0.53892606;stroke-linecap:round;stroke-linejoin:round;stroke-miterlimit:4;stroke-dasharray:none;stroke-opacity:1"
       d="M 19.29254,22.03969 C 22.121178,18.611371 24.454502,14.785183 28.019565,11.948411"
       id="path7093"
       sodipodi:nodetypes="cc" />
    <path
       style="fill:none;fill-rule:evenodd;stroke:#000000;stroke-width:1.203;stroke-linecap:round;stroke-linejoin:round;stroke-opacity:1;stroke-miterlimit:4;stroke-dasharray:none"
       d="M 47.364749,20.28231 C 48.475826,17.227289 49.940427,9.8952377 49.940427,9.8952377 C 49.940427,9.8952377 57.667464,8.1131417 55.495813,12.339255 C 53.324162,16.565368 49.031364,14.325019 49.031364,14.325019"
       id="path11940" />
    <path
       style="fill:none;fill-rule:evenodd;stroke:#000000;stroke-width:1.08684361;stroke-linecap:round;stroke-linejoin:round;stroke-opacity:1;stroke-miterlimit:4;stroke-dasharray:none"
       d="M 60.618869,4.5912137 L 58.204659,15.660887"
       id="path11942" />
    <path
       style="fill:none;fill-rule:evenodd;stroke:#000000;stroke-width:1.35148716;stroke-linecap:round;stroke-linejoin:round;stroke-opacity:1;stroke-miterlimit:4;stroke-dasharray:none"
       d="M 64.055012,8.0259237 L 62.138996,15.64761 C 63.279406,13.61881 62.602979,9.1415775 67.424559,9.3462157 C 73.299764,9.595572 69.670922,16.007689 69.670922,16.007689"
       id="path11944"
       sodipodi:nodetypes="ccsc" />
    <path
       style="fill:none;fill-rule:evenodd;stroke:#000000;stroke-width:1.09496379;stroke-linecap:round;stroke-linejoin:round;stroke-opacity:1;stroke-miterlimit:4;stroke-dasharray:none"
       d="M 75.288376,12.870054 C 75.288376,12.870054 78.617996,12.349232 80.197954,12.797616 C 81.757781,13.240286 81.003924,8.6146027 77.574595,8.9493007 C 74.145266,9.2839997 73.05659,12.535356 74.254134,14.686989 C 75.451677,16.838622 78.989875,17.029878 80.350719,14.878245"
       id="path11946"
       sodipodi:nodetypes="czssc" />
    <path
       style="fill:none;fill-rule:evenodd;stroke:#000000;stroke-width:1.33145499;stroke-linecap:round;stroke-linejoin:round;stroke-opacity:1;stroke-miterlimit:4;stroke-dasharray:none"
       d="M 34.27954,26.339698 L 33.14642,33.492235 C 33.14642,33.492235 33.223021,27.316618 36.671683,27.012159 C 38.056609,26.889894 38.749071,28.234815 38.623169,29.763135"
       id="path11948"
       sodipodi:nodetypes="ccsc" />
    <path
       style="fill:none;fill-rule:evenodd;stroke:#000000;stroke-width:1.16192424;stroke-linecap:round;stroke-linejoin:round;stroke-opacity:1;stroke-miterlimit:4;stroke-dasharray:none"
       d="M 46.831465,26.611241 C 43.414219,25.697978 37.661602,32.670593 43.773801,32.955893 C 49.886,33.241191 50.335607,27.547728 46.831465,26.611241 z "
       id="path11950"
       sodipodi:nodetypes="czz" />
    <path
       style="fill:none;fill-rule:evenodd;stroke:#000000;stroke-width:1.16278315;stroke-linecap:round;stroke-linejoin:round;stroke-opacity:1;stroke-miterlimit:4;stroke-dasharray:none"
       d="M 51.735743,26.964748 C 51.735743,26.964748 58.076809,27.018904 58.076809,26.964748 C 58.076809,26.910592 52.602896,29.510076 51.247968,32.163716 C 49.89304,34.817354 57.697429,31.405532 57.697429,31.405532"
       id="path11952" />
    <path
       style="fill:none;fill-rule:evenodd;stroke:#000000;stroke-width:1.33483779;stroke-linecap:round;stroke-linejoin:round;stroke-opacity:1;stroke-miterlimit:4;stroke-dasharray:none"
       d="M 61.138355,22.138955 L 59.870048,33.57533"
       id="path11954" />
    <path
       style="fill:none;fill-rule:evenodd;stroke:#000000;stroke-width:1.34694481;stroke-linecap:round;stroke-linejoin:round;stroke-opacity:1;stroke-miterlimit:4;stroke-dasharray:none"
       d="M 63.992141,26.091891 L 63.402816,33.824074"
       id="path11956" />
    <path
       style="fill:none;fill-rule:evenodd;stroke:#000000;stroke-width:1.33041942;stroke-linecap:round;stroke-linejoin:round;stroke-opacity:1;stroke-miterlimit:4;stroke-dasharray:none"
       d="M 70.929414,27.667977 C 70.929414,27.667977 71.639622,25.460601 69.272261,25.979983 C 66.9049,26.499367 66.490612,28.447051 68.680421,30.199967 C 70.87023,31.952883 71.817174,34.744565 68.917157,34.030414 C 66.01714,33.316263 66.727348,31.433501 66.727348,31.433501"
       id="path11958" />
    <path
       style="fill:none;fill-rule:evenodd;stroke:#000000;stroke-width:1.35148716;stroke-linecap:round;stroke-linejoin:round;stroke-opacity:1;stroke-miterlimit:4;stroke-dasharray:none"
       d="M 84.494069,26.345253 L 82.578053,33.966939 C 83.520972,32.016585 83.320541,28.10598 87.863616,27.665545 C 93.702967,27.099441 90.109979,34.327018 90.109979,34.327018"
       id="path11960"
       sodipodi:nodetypes="ccsc" />
    <path
       style="fill:none;fill-rule:evenodd;stroke:#000000;stroke-width:1.09496379;stroke-linecap:round;stroke-linejoin:round;stroke-opacity:1;stroke-miterlimit:4;stroke-dasharray:none"
       d="M 74.976368,30.37289 C 74.976368,30.37289 77.885819,29.936102 79.801912,30.468519 C 81.741251,31.007395 81.112084,26.36954 77.682755,26.704238 C 74.253426,27.038937 73.16475,30.290293 74.362294,32.441926 C 75.559837,34.593559 79.014001,34.448681 80.374845,32.297048"
       id="path11962"
       sodipodi:nodetypes="czssc" />
    <path
       style="fill:none;fill-rule:evenodd;stroke:#000000;stroke-width:1.49552345;stroke-linecap:round;stroke-linejoin:round;stroke-opacity:1;stroke-miterlimit:4;stroke-dasharray:none"
       d="M 95.379523,26.763333 L 94.200308,34.665237"
       id="path11964"
       sodipodi:nodetypes="cc" />
    <path
       style="fill:none;fill-rule:evenodd;stroke:#000000;stroke-width:1.55002582;stroke-linecap:round;stroke-linejoin:round;stroke-opacity:1;stroke-miterlimit:4;stroke-dasharray:none"
       d="M 78.837266,7.465255 C 78.837266,7.465255 79.430551,5.5312312 80.994667,4.467518"
       id="path11966" />
    <path
       style="fill:none;fill-rule:evenodd;stroke:#000000;stroke-width:1.80360186;stroke-linecap:round;stroke-linejoin:round;stroke-opacity:1;stroke-miterlimit:4;stroke-dasharray:none"
       d="M 64.117647,24.117647 L 64.621849,23.697479"
       id="path11968" />
    <path
       style="fill:none;fill-rule:evenodd;stroke:#000000;stroke-width:1.26252127;stroke-linecap:round;stroke-linejoin:miter;stroke-opacity:1;stroke-miterlimit:4;stroke-dasharray:none"
       d="M 95.966387,24.789916 C 95.966387,24.789916 96.722689,23.02521 98.403361,21.260504"
       id="path11970" />
    <path
       style="fill:none;fill-rule:evenodd;stroke:#000000;stroke-width:1.21497679;stroke-linecap:butt;stroke-linejoin:miter;stroke-opacity:1;stroke-miterlimit:4;stroke-dasharray:none"
       d="M 68.408249,22.441861 C 68.408249,22.441861 69.488351,23.794745 69.886284,24.358446 C 70.476694,25.194805 73.524525,22.441861 73.524525,22.441861"
       id="path12941"
       sodipodi:nodetypes="csc" />
  </g>
</svg>
